**ABCDEFGHIJKLMNOPQRSTUVWXYZabcdefghijklmnopqrstuvwxyz**************************
**PARASOLID !"#$%&'()*+,-./:;<=>?@[\]^_`{|}~0123456789**************************
**PART1;
MC=unknown;
MC_MODEL=unknown;
MC_ID=unknown;
OS=unknown;
OS_RELEASE=unknown;
FRU=Parasolid 37.0.209;
APPL=Onshape;
SITE=unknown;
USER=unknown;
FORMAT=text;
GUISE=transmit;
KEY=BTGapi::writeModels_.xmt;
FILE=BTGapi::writeModels_.xmt;
DATE=2025-07-27T21:18:24 (UTC);
**PART2;
SCH=SCH_3700209_36001;
USFLD_SIZE=0;
**PART3;
**END_OF_HEADER*****************************************************************
T51 : TRANSMIT FILE created by modeller version 370020923 SCH_3700209_36001_1300
6231 0 12 36 CCCI7 lattice222 0 CCCI4 mesh1006 0 I8 polyline1008 0 CCCCCCCDI5 ow
ner1040 0 CCCI16 boundary_lattice222 0 CCCI13 boundary_mesh1006 0 I17 boundary_p
olyline1008 0 CCCA16 index_map_offset0 0 1 dA9 index_map82 0 A17 node_id_index_m
ap82 0 A20 schema_embedding_map82 0 A5 child12 0 A14 lowest_node_id0 0 1 dA16 me
sh_offset_data206 0 Z1 2297 2 3 0 0 0 0 0 0 0 1e3 1e-8 0 4 5 1 0 1 2 6 0 7 8 9 0
 0 10 11 12 0 0 0 0 0 0 0 81 255 1 2 2268 13 1 14 0 0 0 15 70 11 CI9 list_type0
 0 1 uI10 notransmit0 0 1 lCCCDCCDI12 finger_index0 0 1 dI12 finger_block1012 0
 CZ3 0 4 T1 0 0 5 20 1 16 16 13 255 6 253 0 1 0 17 0 0 18 0 51 255 7 923 0 19 20
 0 21 +.044 -.05 -.035 0 -1 0 .015 0 0 -1 31 255 8 2208 0 22 23 0 0 +.032 -.025
 -.05 1284980352575412e-31 0 -1 -1 0 -1284980352575412e-31 .0025 29 255 9 1128 0
 12 24 0 .02697506218943955 -.05 -.05 19 9 CCCCCCI5 frame230 0 CA5 owner12 0 Z10
 88 0 1 18 0 25 0 V0 16 255 11 825 26 ?27 0 28 29 0 0 1 18 255 12 1124 30 31 0 3
2 9 ?1 81 1 30 1554 33 12 0 0 34 35 36 17 255 31 0 37 38 39 12 40 41 0 42 -18 32
 1114 43 44 12 45 24 ?1 81 1 43 1556 33 32 0 0 35 46 47 17 44 0 48 49 50 32 51 5
2 0 53 -18 45 1109 35 39 32 54 55 ?1 29 24 1118 0 32 55 9 .03702493781056045 -.0
5 -.06 29 55 1113 0 45 56 24 .02697506218943955 -.05 -.06 29 56 1068 0 54 57 55
 .015 -.0440065778087482 -.06 18 54 1064 58 59 45 60 56 ?1 29 57 1043 0 60 61 56
 .049 -.00599342219125179 -.06 18 60 1039 62 63 54 64 57 ?1 29 61 777 0 64 65 57
 .005 -.05 -.035 18 64 774 66 67 60 68 61 ?1 29 65 773 0 68 69 61 .02 -.05 -.05
 18 68 770 70 71 64 72 65 ?1 29 69 769 0 72 73 65 .044 -.05 -.05 18 72 766 74 27
 68 75 69 ?1 29 73 765 0 75 76 69 .059 -.05 -.035 18 75 762 77 78 72 79 73 ?1 29
 76 761 0 79 80 73 .064 -.05 -.045 18 79 758 81 82 75 83 76 ?1 29 80 752 0 83 84
 76 0 -.05 -.045 18 83 749 85 86 79 87 80 ?1 29 84 738 0 87 88 80 .064 0 -.045 1
8 87 735 89 90 83 91 84 ?1 29 88 734 0 91 92 84 .059 0 -.035 18 91 731 93 94 87
 95 88 ?1 29 92 730 0 95 96 88 .02 0 -.05 18 95 727 97 98 91 99 92 ?1 29 96 726
 0 99 100 92 .044 0 -.05 18 99 723 101 102 95 103 96 ?1 29 100 722 0 103 104 96
 .005 0 -.035 18 103 719 105 106 99 107 100 ?1 29 104 718 0 107 108 100 0 0 -.04
5 18 107 715 109 110 103 111 104 ?1 29 108 704 0 111 112 104 .049 -.05 -.06 18 1
11 701 113 49 107 114 108 ?1 29 112 700 0 114 115 108 .015 -.05 -.06 18 114 697
 116 117 111 118 112 ?1 29 115 696 0 118 119 112 .049 0 -.06 18 118 693 120 121
 114 122 115 ?1 29 119 692 0 122 123 115 .015 0 -.06 18 122 689 124 125 118 126
 119 ?1 29 123 492 0 126 127 119 .064 -.05 -.01 18 126 489 128 129 122 130 123 ?
1 29 127 478 0 130 131 123 .059 -.05 -.01 18 130 475 132 133 126 134 127 ?1 29 1
31 464 0 134 135 127 .064 -.01 0 18 134 461 136 137 130 138 131 ?1 29 135 460 0
 138 139 131 .064 -.04 0 18 138 457 140 141 134 142 135 ?1 29 139 456 0 142 143
 135 .059 -.01 693889390390723e-32 18 142 453 144 145 138 146 139 ?1 29 143 452
 0 146 147 139 .059 -.04 693889390390723e-32 18 146 449 148 149 142 150 143 ?1 2
9 147 438 0 150 151 143 .005 -.05 -.01 18 150 435 152 153 146 154 147 ?1 29 151
 424 0 154 155 147 .064 0 -.01 18 154 421 156 157 150 158 151 ?1 29 155 420 0 15
8 159 151 .059 0 -.01 18 158 417 160 161 154 162 155 ?1 29 159 416 0 162 163 155
 .005 0 -.01 18 162 413 164 165 158 166 159 ?1 29 163 402 0 166 167 159 0 -.05 -
.01 18 166 399 168 169 162 170 163 ?1 29 167 398 0 170 171 163 0 0 -.01 18 170 3
95 172 173 166 174 167 ?1 29 171 384 0 174 175 167 .005 -.01 0 18 174 381 176 17
7 170 178 171 ?1 29 175 380 0 178 179 171 .005 -.04 0 18 178 377 180 181 174 182
 175 ?1 29 179 376 0 182 183 175 1084202172485504e-33 -.01 0 18 182 373 184 185
 178 186 179 ?1 29 183 372 0 186 187 179 1084202172485504e-33 -.04 0 18 186 369
 188 189 182 190 183 ?1 29 187 1427 0 190 191 183 .015 -.00599342219125179 -.06
 18 190 1336 192 193 186 194 187 ?1 29 191 1431 0 194 195 187 .049 -.04400657780
87482 -.06 18 194 1339 196 197 190 198 191 ?1 29 195 1436 0 198 0 191 .037024937
81056045 -.05 -.05 18 198 1347 34 50 194 0 195 ?1 81 1 34 1553 33 198 0 0 196 30
 199 17 50 0 48 44 27 198 200 201 0 51 +15 255 48 1130 0 44 202 0 17 27 0 48 50
 203 72 204 11 0 200 +17 200 0 205 102 206 72 50 201 0 207 -16 201 767 208 ?50 2
09 210 211 210 210 1 17 51 0 212 213 214 198 44 52 0 206 +15 212 1378 0 213 215
 0 17 213 0 212 40 51 12 206 216 0 0 +17 214 0 212 51 40 32 217 218 0 0 -16 52 1
301 46 ?51 41 219 220 0 0 1 17 206 0 205 200 42 198 213 216 0 0 -15 205 223 0 98
 221 0 17 42 0 205 206 71 12 38 210 0 213 -16 216 1282 222 ?213 223 224 225 0 0
 1 81 1 222 1530 33 216 0 0 226 227 228 16 223 1316 229 ?230 219 216 231 0 0 1 1
6 224 1245 232 ?233 216 218 234 235 218 1 31 225 1426 0 216 236 234 0 +.032 -.02
5 -.05 0 0 -1 -1 0 0 .0255 31 236 1733 0 237 238 225 0 +.064 -.025 -.021 -1 0 0
 0 0 1 .0025 31 234 1424 0 235 225 231 0 +.032 -.025 -.06 0 0 -1 -1 0 0 .0255 16
 235 1258 239 ?240 218 237 234 218 224 1 38 12 CCCCCCCCCCCA17 intersection_data2
04 0 Z231 1420 0 223 234 241 0 +20 242 243 244 245 246 38 241 1419 0 219 231 220
 0 +247 242 248 249 250 251 51 20 902 0 252 253 7 254 +.049 -.05 -.045 0 1 0 .01
5 0 0 1 51 242 1413 0 255 256 257 258 +.032 -.025 -.05 0 0 -1 .0255 -1 0 0 40 25
5 7 243 0 1 7 .00138378719440543 .345478704463066 ??.049 -.00599342219125179 -.0
6 .0538382467530214 -.01183409787541504 -.0591982875149392 .0566705899736882 -.0
1854926435589275 -.0578903859312107 .0574862017365925 -.02583876161196685 -.0573
686854631304 .0561993973497137 -.0330398487492408 -.0581593570435996 .0527948954
259095 -.03975880497281165 -.0595120215237717 .049 -.0440065778087482 -.06 41 3
 CI8 term_use0 0 1 cCZ1 244 L?.049 -.00599342219125179 -.06 41 1 245 L?.049 -.04
40065778087482 -.06 204 2 17 INTERSECTION_DATA17 Intersection data7 uv_type0 0 1
 u6 values0 1 1 fT28 246 4 3.141592653589795 .0440065778087482 2.300523983021865
 .01 2.813170640082335 .03816590212458495 2.59905618420674 .00919828751493919 2.
60481130860851 .03145073564410725 2.88584374905593 .00789038593121071 2.54025402
812528 .02416123838803315 3.17449119993079 .00736868546313044 2.640983738091115
 .0169601512507592 3.462352967212965 .00815935704359963 2.88581997249595 .010241
19502718834 3.758820415188115 .00951202152377167 3.141592653589795 .005993422191
25179 3.982661324157725 .01 14 255 255 1395 259 ?260 19 261 6 242 +215 260 260 1
9 25 51 256 1730 0 262 263 242 0 +.08 -.025 -.021 -1 0 0 .0025 0 0 1 50 255 257
 3 0 202 242 264 0 +.032 -.05 -.03 0 -1 0 1 0 0 141 255 258 231 265 265 242 141
 265 241 258 258 242 14 202 1 266 ?267 268 48 6 257 +17 17 267 268 25 50 264 196
 0 267 257 269 0 +.032 0 -.03 0 -1 0 1 0 0 14 267 120 270 ?271 202 272 6 264 -0
 0 271 202 25 50 269 237 0 268 264 273 0 +.005 -.05 -.025 -1 0 0 0 0 1 14 268 22
2 274 ?202 221 275 6 269 -0 0 202 221 25 50 273 238 0 221 269 276 0 +.032 -.05 -
.05 1284980352575412e-31 0 -1 -1 0 -1284980352575412e-31 14 221 224 277 ?268 278
 279 6 273 -0 0 268 278 25 50 276 239 0 278 273 280 0 +.059 -.05 -.025 1 0 13877
78780781446e-31 1387778780781446e-31 0 -1 14 278 226 281 ?221 282 283 6 276 -0 0
 221 282 25 50 280 240 0 282 276 284 0 +.0615 -.05 0 0 0 -1 -1 0 0 14 282 228 28
5 ?278 286 287 6 280 -0 0 278 286 25 50 284 241 0 286 280 288 0 +.064 -.05 -.03
 -1 0 0 0 0 1 14 286 230 289 ?282 290 291 6 284 -0 0 282 290 25 50 288 242 0 290
 284 292 0 +.032 -.05 -.06 0 0 1 1 0 0 14 290 232 293 ?286 294 295 6 288 -0 0 28
6 294 25 50 292 243 0 294 288 296 0 +0 -.05 -.03 1 0 0 0 0 -1 14 294 234 297 ?29
0 298 299 6 292 -0 0 290 298 25 50 296 244 0 298 292 300 0 +.0025 -.05 0 0 0 -1
 -1 0 0 14 298 236 301 ?294 17 302 6 296 -0 0 294 17 25 51 300 540 0 271 296 303
 0 +.0025 -.01 -.01 -1 0 0 .01 0 0 1 14 271 528 304 ?305 267 306 6 300 +0 0 305
 267 25 51 303 561 0 305 300 307 0 +.0615 -.01 -.01 -1 0 0 .01 0 0 1 14 305 549
 308 ?309 271 310 6 303 +0 0 309 271 25 51 307 582 0 309 303 311 0 +.032 -.04 -.
01 1 0 0 .01 0 0 -1 14 309 570 312 ?313 305 314 6 307 +0 0 313 305 25 51 311 603
 0 313 307 247 0 +.032 -.04 -.01 1 0 0 .01 0 0 -1 14 313 591 315 ?316 309 317 6
 311 +0 0 316 309 25 51 247 860 0 316 311 253 318 +.015 -.05 -.045 0 1 0 .015 0
 0 1 14 316 848 319 ?320 313 321 6 247 +0 0 320 313 25 51 253 881 0 320 247 20 3
22 +.02 -.05 -.035 0 -1 0 .015 0 0 -1 141 318 241 318 318 247 14 320 869 323 ?25
2 316 324 6 253 -0 0 252 316 25 141 322 325 322 322 253 38 325 1870 0 326 327 32
8 0 +253 329 330 331 331 332 16 326 1993 333 ?334 335 336 325 0 0 1 38 327 1863
 0 336 337 325 0 +7 338 339 340 340 341 31 328 1877 0 335 325 23 0 +.032 -.04171
85202240944 -.05 1284980352575412e-31 0 -1 -1 0 -1284980352575412e-31 .0025 51 3
29 2063 0 342 343 263 344 +.0125 -.0256290975958109 -.035 0 0 -1 .0025 -1 0 0 40
 20 330 0 1 20 .0002225856095106295 .3851940477272595 ??.01 -.0256290975958109 -
.046180339887499 .01009614115161248 -.02494246622671315 -.0462655927456666 .0103
5839264061282 -.02433932322863705 -.0464908401575956 .01091811382253002 -.023693
21636972045 -.0469381465671803 .01164292553049464 -.02328060374789005 -.04745629
58503378 .01261397810523186 -.02313169714904075 -.0480555229910565 .013599925302
5542 -.02338406656511195 -.048566099065948 .0143577521892702 -.0239561490600628
 -.0488983826268496 .01481732398575818 -.024691009356342 -.0490762164423329 .014
99610232899224 -.0254895513196172 -.0491407569846201 .01491356011218292 -.026280
80886998035 -.0491112766703663 .0145933081061704 -.02699586793959265 -.048991700
4958367 .01407227934655744 -.02757278935542425 -.0487790466961525 .0133946118368
963 -.02796355034994515 -.0484673251692654 .01260224627246986 -.0281270058606929
5 -.0480488788708768 .01174208169770452 -.02801144094785855 -.0475222516071437 .
01090116270630856 -.02755100272049875 -.0469252320691436 .01035232995852806 -.02
69087512180712 -.0464857504226274 .0100812170920202 -.02626114921084305 -.046252
4550931949 .01 -.0256290975958109 -.046180339887499 41 1 331 H?.01 -.02562909759
58109 -.046180339887499 204 80 332 4 5.55345765095262 -.0243709024041891 0 .0111
8033988749894 5.56202406387494 -.02505753377328685 .2782283351865545 .0112655927
4566662 5.58507160223501 -.02566067677136295 .54206930078695 .01149084015759556
 5.63284274490565 -.02630678363027955 .88569113442849 .01193814656718034 5.69224
959811083 -.02671939625210995 1.22086873549224 .01245629585033776 5.768338570095
96 -.02686830285095925 1.61640337771126 .01305552299105654 5.84237589055361 -.02
661593343488805 2.026361727575045 .01356609906594796 5.89754785072228 -.02604385
093993725 2.408488688247995 .0138983826268496 5.93040125878556 -.025308990643658
 2.75694204783959 .0140762164423329 5.94307277733281 -.0245104486803828 3.085745
11671786 .01414075698462014 5.93722951783799 -.02371919113001965 3.4053238135789
45 .01411127667036628 5.91443918196431 -.02300413206040735 3.720020410671385 .01
399170049583672 5.8769200159087 -.02242721064457575 4.032236297643475 .013779046
6961525 5.82718658146377 -.02203644965005485 4.34643021612336 .01346732516926542
 5.76743973073284 -.02187299413930705 4.67147906106487 .01304887887087676 5.7001
8886251717 -.0219885590521415 5.02040363027685 .01252225160714372 5.631422064822
69 -.02244899727950125 5.40628211774769 .01192523206914356 5.5845438753799 -.023
0912487819288 5.74583508850622 .0114857504226274 5.5606985442283 -.0237388507891
57 6.02759080081414 .0112524550931949 5.55345765095262 -.0243709024041891 0 .011
18033988749894 14 342 2009 345 ?346 347 348 6 329 -0 0 346 347 25 51 343 2066 0
 349 338 329 0 +.032 -.00727203767746687 -.035 0 0 -1 .0025 -1 0 0 51 263 2060 0
 346 329 256 0 +.032 -.0417185202240944 -.035 0 0 -1 .0025 -1 0 0 141 344 325 34
4 344 329 14 346 2039 350 ?349 342 351 6 263 -0 0 349 342 25 81 1 350 2295 352 3
46 353 0 345 354 355 14 349 1979 354 ?356 346 357 6 343 -0 0 356 346 25 15 351 2
037 0 358 346 359 13 25 89 0 0 0 0 0 0 10 17 14 17 1131 360 ?298 0 37 6 257 +202
 202 298 0 25 81 1 360 2269 352 17 361 0 0 301 362 15 37 1135 0 31 17 0 80 7 CCC
CCDI12 legal_owners0 17 1 lCZ1 352 0 363 8001 0 0 0 0 3 5 0 0 0 FFFFTFTFFFFFFFFF
F2 81 1 361 1545 33 17 0 360 364 365 366 81 1 301 2270 352 298 367 0 360 297 368
 83 255 3 362 .615686274509804 .811764705882353 .929411764705882 81 1 367 684 33
 298 0 301 369 124 370 81 1 297 2271 352 294 371 0 301 293 372 83 3 368 .6156862
74509804 .811764705882353 .929411764705882 81 1 371 1748 33 294 0 297 373 374 37
5 81 1 293 2272 352 290 376 0 297 289 377 83 3 372 .615686274509804 .81176470588
2353 .929411764705882 81 1 376 2264 33 290 0 293 378 379 380 81 1 289 2273 352 2
86 374 0 293 285 381 83 3 377 .615686274509804 .811764705882353 .929411764705882
 81 1 374 1749 33 286 0 289 371 382 383 81 1 285 2274 352 282 369 0 289 281 384
 83 3 381 .615686274509804 .811764705882353 .929411764705882 81 1 369 681 33 282
 0 285 385 367 386 81 1 281 2275 352 278 382 0 285 277 387 83 3 384 .61568627450
9804 .811764705882353 .929411764705882 81 1 382 1750 33 278 0 281 374 388 389 81
 1 277 2276 352 221 379 0 281 274 390 83 3 387 .615686274509804 .811764705882353
 .929411764705882 81 1 379 2265 33 221 0 277 376 0 391 81 1 274 2277 352 268 388
 0 277 266 392 83 3 390 .615686274509804 .811764705882353 .929411764705882 81 1
 388 1751 33 268 0 274 382 393 394 81 1 266 2278 352 202 364 0 274 270 395 83 3
 392 .615686274509804 .811764705882353 .929411764705882 81 1 364 1544 33 202 0 2
66 396 361 397 81 1 270 2279 352 267 398 0 266 304 399 83 3 395 .615686274509804
 .811764705882353 .929411764705882 81 1 398 1535 33 267 0 270 400 401 402 81 1 3
04 2280 352 271 403 0 270 308 404 83 3 399 .615686274509804 .811764705882353 .92
9411764705882 81 1 403 675 33 271 0 304 405 385 406 81 1 308 2281 352 305 407 0
 304 312 408 83 3 404 .615686274509804 .811764705882353 .929411764705882 81 1 40
7 673 33 305 0 308 409 405 410 81 1 312 2282 352 309 405 0 308 315 411 83 3 408
 .615686274509804 .811764705882353 .929411764705882 81 1 405 674 33 309 0 312 40
7 403 412 81 1 315 2283 352 313 385 0 312 319 413 83 3 411 .615686274509804 .811
764705882353 .929411764705882 81 1 385 676 33 313 0 315 403 369 414 81 1 319 228
4 352 316 227 0 315 323 415 83 3 413 .615686274509804 .811764705882353 .92941176
4705882 81 1 227 1533 33 316 0 319 222 400 416 81 1 323 2285 352 320 417 0 319 4
18 419 83 3 415 .615686274509804 .811764705882353 .929411764705882 81 1 417 2100
 33 320 0 323 420 421 422 81 1 418 2286 352 252 400 0 323 423 424 83 3 419 .6156
86274509804 .811764705882353 .929411764705882 14 252 890 418 ?19 320 425 6 20 +0
 0 19 320 25 81 1 400 1534 33 252 0 418 227 398 426 81 1 423 2287 352 19 420 0 4
18 259 427 83 3 424 .615686274509804 .811764705882353 .929411764705882 14 19 911
 423 ?255 252 428 6 7 -0 0 255 252 25 81 1 420 2099 33 19 0 423 429 417 430 81 1
 259 2288 352 255 431 0 423 432 433 83 3 427 .615686274509804 .811764705882353 .
929411764705882 81 1 431 1547 33 255 0 259 365 434 435 81 1 432 2289 352 260 365
 0 259 436 437 83 3 433 .615686274509804 .811764705882353 .929411764705882 14 26
0 1379 432 ?215 255 438 6 242 +255 215 215 255 25 81 1 365 1546 33 260 0 432 361
 431 439 81 1 436 2290 352 215 434 0 432 440 441 83 3 437 .615686274509804 .8117
64705882353 .929411764705882 14 215 1375 436 ?442 260 212 6 242 +260 255 442 260
 25 81 1 434 1548 33 215 0 436 431 192 443 81 1 440 2291 352 442 393 0 436 444 4
45 83 3 441 .615686274509804 .811764705882353 .929411764705882 14 442 1715 440 ?
262 215 446 6 256 -262 262 262 215 25 81 1 393 1752 33 442 0 440 388 447 448 81
 1 444 2292 352 262 447 0 440 449 450 83 3 445 .615686274509804 .811764705882353
 .929411764705882 14 262 1700 444 ?347 442 451 6 256 -442 442 347 442 25 81 1 44
7 1753 33 262 0 444 393 452 453 81 1 449 2293 352 347 454 0 444 345 455 83 3 450
 .615686274509804 .811764705882353 .929411764705882 14 347 1949 449 ?342 262 456
 6 338 -0 0 342 262 25 81 1 454 2096 33 347 0 449 457 353 458 81 1 345 2294 352
 342 457 0 449 350 459 83 3 455 .615686274509804 .811764705882353 .9294117647058
82 81 1 457 2095 33 342 0 345 460 454 461 83 3 459 .615686274509804 .81176470588
2353 .929411764705882 80 1 33 462 463 9000 0 0 0 0 3 6 0 0 0 FFTFTFTTFFFFFFFFF1
 81 1 460 2094 33 464 0 0 465 457 466 82 255 3 461 20 0 2 16 464 1963 460 ?467 4
68 335 23 0 0 1 81 1 465 2093 33 335 0 0 469 460 470 82 3 466 20 7 1 16 335 2023
 465 ?471 464 326 328 0 0 1 81 1 469 2092 33 472 0 0 473 465 474 82 3 470 20 6 1
 16 472 1969 469 ?475 476 477 478 0 0 1 81 1 473 2091 33 479 0 0 480 469 481 82
 3 474 20 5 1 16 479 2029 473 ?358 477 22 482 0 0 1 81 1 480 2090 33 476 0 0 483
 473 484 82 3 481 20 4 1 16 476 1939 480 ?485 336 472 486 0 0 1 81 1 483 2089 33
 477 0 0 333 480 487 82 3 484 20 3 1 16 477 1999 483 ?488 472 479 489 0 0 1 81 1
 333 2088 33 326 0 0 452 483 490 82 3 487 20 2 1 81 1 452 2087 33 336 0 0 447 33
3 491 82 3 490 20 1 1 16 336 1933 452 ?492 326 476 327 0 0 1 82 3 491 20 0 1 17
 492 0 428 492 492 0 493 336 0 0 +15 428 1861 0 492 19 494 17 493 0 495 493 493
 0 492 336 0 0 -15 495 1948 0 493 347 0 15 494 912 0 204 19 0 17 204 0 494 496 2
07 75 27 11 0 0 -17 496 0 494 497 204 91 78 498 0 0 -17 207 0 494 204 497 72 102
 499 0 0 -17 497 0 494 207 496 99 94 28 0 500 -17 102 0 205 98 200 99 207 499 0
 497 +16 499 793 501 ?102 502 503 504 0 0 1 81 1 501 1526 33 499 0 0 229 505 506
 16 502 798 505 ?71 507 499 508 0 0 1 16 503 788 509 ?510 499 511 512 0 0 1 30 2
55 504 795 0 499 512 508 0 +.044 0 -.05 0 1 0 30 512 790 0 503 513 504 0 +.005 0
 -.035 0 1 0 30 508 800 0 502 504 514 0 -.02 -.05 -.05 0 1 0 30 514 805 0 507 50
8 515 0 +.064 -.05 -.045 0 1 0 16 507 803 516 ?517 498 502 514 0 0 1 30 515 810
 0 498 514 518 0 -.059 -.05 -.035 0 1 0 16 498 808 519 ?78 520 507 515 0 0 1 31
 518 829 0 520 515 521 0 +.02 0 -.035 0 -1 0 0 0 -1 .015 16 520 813 522 ?523 524
 498 518 0 0 1 31 521 830 0 524 518 525 0 -.02 -.05 -.035 0 -1 0 0 0 -1 .015 16
 524 817 526 ?67 28 520 521 0 0 1 31 525 831 0 28 521 29 0 +.044 0 -.035 0 -1 0
 0 0 -1 .015 16 28 821 527 ?94 11 524 525 0 0 1 31 29 832 0 11 525 337 0 -.044 -
.05 -.035 0 -1 0 0 0 -1 .015 31 337 1651 0 528 29 327 0 +.005 -.025 -.021 -1 0 0
 0 0 1 .0025 16 528 1692 373 ?529 530 468 337 0 0 1 81 1 373 1747 33 528 0 0 531
 371 532 17 529 0 275 529 529 0 533 528 0 0 +16 530 1683 531 ?534 237 528 238 0
 0 1 16 468 1695 535 ?536 528 464 537 0 0 1 81 1 535 1744 33 468 0 0 538 539 540
 17 536 0 446 536 536 0 541 468 0 0 +31 537 1735 0 468 482 238 0 +0 -.025 -.021
 -1 0 0 0 0 1 .0025 31 482 2072 0 479 489 537 0 +.032 -.0417185202240944 -.06 0
 0 -1 -1 0 0 .0025 31 238 1734 0 530 537 236 0 +.059 -.025 -.021 1 0 13877787807
81446e-31 1387778780781446e-31 0 -1 .0025 31 489 2074 0 477 478 482 0 +.0125 -.0
256290975958109 -.06 0 0 -1 -1 0 0 .0025 31 478 2076 0 472 486 489 0 +.032 -.007
27203767746687 -.06 0 0 -1 -1 0 0 .0025 31 486 2078 0 476 542 478 0 +.0534254478
290677 -.0256290975958109 -.06 0 0 -1 -1 0 0 .0025 31 542 2258 0 543 0 486 0 +.0
32 -.025 -.06 0 0 -1 -1 0 0 .0025 16 543 2230 421 ?544 22 0 542 0 0 1 81 1 421 2
261 33 543 0 0 417 545 546 17 544 0 547 544 544 0 548 543 0 0 +16 22 2224 545 ?5
49 479 543 8 0 0 1 81 1 545 2262 33 22 0 0 421 378 550 17 549 0 279 549 549 0 55
1 22 0 0 +15 279 2206 0 549 221 552 17 551 0 553 551 551 0 549 22 0 0 -15 553 22
39 0 551 356 0 14 356 2240 554 ?0 349 547 6 555 -0 0 0 349 25 81 1 554 2297 352
 356 378 0 354 0 556 15 547 2238 0 544 356 553 51 555 2255 0 356 0 338 0 +.032 -
.025 -.035 0 0 -1 .0025 -1 0 0 51 338 2069 0 347 555 343 557 +.0534254478290677
 -.0256290975958109 -.035 0 0 -1 .0025 -1 0 0 141 557 327 557 557 338 81 1 378 2
263 33 356 0 554 545 376 558 81 1 354 2296 352 349 429 0 350 554 559 83 3 556 .6
15686274509804 .811764705882353 .929411764705882 81 1 429 2098 33 349 0 354 353
 420 560 83 3 559 .615686274509804 .811764705882353 .929411764705882 81 1 353 20
97 33 346 0 350 454 429 561 82 3 560 20 3 2 82 3 561 20 2 2 82 3 558 30 0 2 15 5
52 1882 0 467 221 562 17 467 0 552 467 467 0 563 464 0 0 +15 562 1875 0 471 221
 205 17 471 0 562 471 471 0 564 335 0 0 +17 564 0 359 564 564 0 471 335 0 0 -15
 359 2038 0 564 346 0 17 563 0 565 563 563 0 467 464 0 0 -15 565 1978 0 563 349
 0 82 3 550 30 1 1 17 548 0 295 548 548 0 544 543 0 0 -15 295 2213 0 548 290 566
 15 566 1910 0 567 290 568 17 567 0 566 567 567 0 485 476 0 0 -15 568 1903 0 569
 290 570 17 569 0 568 569 569 0 475 472 0 0 -15 570 1896 0 571 290 572 17 571 0
 570 571 571 0 488 477 0 0 -15 572 1889 0 573 290 574 17 573 0 572 573 573 0 358
 479 0 0 -15 574 231 0 121 290 0 17 121 0 574 575 125 118 576 577 0 578 +17 575
 0 574 233 121 60 579 580 0 581 +17 125 0 574 121 240 122 193 582 0 583 +17 576
 0 272 110 578 122 121 577 0 0 -16 577 690 584 ?121 585 586 587 0 0 1 17 578 0 2
72 576 588 118 90 589 0 579 +15 272 131 0 523 267 0 17 588 0 272 578 590 87 157
 585 0 0 -17 90 0 425 591 579 87 578 589 0 517 -16 589 739 592 ?578 593 594 595
 0 0 1 17 579 0 425 90 63 118 575 580 0 0 -15 425 1050 0 63 252 0 17 63 0 425 57
9 197 60 230 223 0 575 -16 580 705 596 ?575 582 597 598 597 597 1 81 1 596 1538
 33 580 0 0 599 600 601 16 582 1070 401 ?125 594 580 602 594 594 1 16 597 1045 6
00 ?603 580 604 598 580 580 1 30 598 707 0 580 605 602 0 -.049 -.05 -.06 0 1 0 3
0 605 510 0 604 606 598 0 +.059 -.05 -.01 -1 0 0 30 602 712 0 594 598 595 0 +.01
5 -.05 -.06 0 1 0 16 594 710 599 ?607 589 582 602 582 582 1 31 595 741 0 589 602
 608 0 -.049 0 -.045 0 -1 0 0 0 -1 .015 31 608 746 0 593 595 609 0 -.015 0 -.045
 0 -1 0 0 0 -1 .015 16 593 744 610 ?110 611 589 608 0 0 1 30 609 755 0 611 608 6
12 0 -0 -.05 -.045 0 1 0 16 611 753 613 ?86 614 593 609 0 0 1 31 612 780 0 614 6
09 513 0 +.049 -.05 -.045 0 -1 0 0 0 -1 .015 16 614 778 615 ?82 511 611 612 0 0
 1 31 513 785 0 511 612 512 0 +.015 -.05 -.045 0 -1 0 0 0 -1 .015 16 511 783 616
 ?117 503 614 513 0 0 1 81 1 616 968 33 511 0 0 610 592 617 17 117 0 37 39 618 1
14 619 511 0 620 +17 39 0 37 31 117 45 620 621 0 40 +17 618 0 37 117 622 83 623
 624 0 619 +17 619 0 321 625 626 83 117 511 0 0 -17 620 0 574 607 217 114 39 621
 0 626 -17 607 0 574 240 620 54 626 594 0 627 +17 217 0 574 620 53 45 214 218 0
 0 +16 621 698 628 ?39 629 630 631 630 630 1 17 626 0 321 619 59 114 607 594 0 0
 -15 321 1075 0 59 316 0 17 59 0 321 626 193 54 632 219 0 607 -17 193 0 321 59 5
83 190 125 582 0 632 -17 632 0 438 627 627 190 59 219 0 240 +16 219 1304 633 ?63
2 52 223 241 0 0 1 81 1 633 1524 33 219 0 0 634 229 635 81 1 634 1523 33 1 0 636
 637 633 638 81 1 229 1525 33 223 0 0 633 501 639 82 3 635 12 0 1 82 3 639 12 1
 1 81 1 636 2266 640 1 634 14 0 0 641 81 1 637 992 33 209 0 0 642 634 643 82 3 6
38 6 0 3 16 209 775 637 ?153 644 201 645 0 0 1 81 1 642 991 33 646 0 0 647 637 6
48 82 3 643 10 27 1 16 646 720 642 ?165 624 649 650 0 0 1 81 1 647 990 33 651 0
 0 652 642 653 82 3 648 10 26 1 16 651 476 647 ?203 210 629 654 0 0 1 81 1 652 9
89 33 655 0 0 656 647 657 82 3 653 10 25 1 16 655 418 652 ?658 649 585 659 0 0 1
 81 1 656 988 33 629 0 0 660 652 661 82 3 657 10 24 1 16 629 759 656 ?129 651 62
1 662 0 0 1 81 1 660 987 33 585 0 0 663 656 664 82 3 661 10 23 1 16 585 736 660
 ?157 655 577 665 0 0 1 81 1 663 986 33 624 0 0 666 660 667 82 3 664 10 22 1 16
 624 400 663 ?618 630 646 668 0 0 1 81 1 666 985 33 586 0 0 509 663 669 82 3 667
 10 21 1 16 586 396 666 ?670 577 41 671 0 0 1 81 1 509 980 33 503 0 0 526 666 67
2 82 3 669 10 20 1 81 1 526 979 33 524 0 0 522 509 673 82 3 672 10 15 1 81 1 522
 978 33 520 0 0 519 526 674 82 3 673 10 14 1 81 1 519 976 33 498 0 0 26 522 675
 82 3 674 10 13 1 81 1 26 975 33 11 0 0 527 519 676 82 3 675 10 11 1 81 1 527 97
4 33 28 0 0 516 26 677 82 3 676 10 10 1 81 1 516 972 33 507 0 0 615 527 678 82 3
 677 10 9 1 81 1 615 971 33 614 0 0 592 516 679 82 3 678 10 7 1 81 1 592 970 33
 589 0 0 616 615 680 82 3 679 10 6 1 82 3 680 10 5 1 17 670 0 681 86 173 107 682
 586 0 625 +16 41 1298 683 ?40 586 52 684 0 0 1 30 671 203 0 586 645 587 0 +0 0
 -.03 0 0 -1 30 645 44 0 209 211 671 0 +.005 -.05 -.025 0 0 1 30 587 202 0 577 6
71 665 0 +.032 0 -.06 1 0 0 30 665 201 0 585 587 659 0 +.064 0 -.03 0 0 1 30 659
 199 0 655 665 685 0 +.059 0 -.025 1387778780781446e-31 0 -1 30 685 198 0 649 65
9 650 0 +.032 0 -.05 -1 0 -1284980352575412e-31 16 649 724 226 ?98 646 655 685 0
 0 1 30 650 197 0 646 685 686 0 +.005 0 -.025 0 0 1 30 686 245 0 644 650 687 0 +
.005 -.05 0 0 1 0 16 644 378 409 ?688 689 209 686 0 0 1 30 687 248 0 689 686 690
 0 +.059 -.05 693889390390723e-32 0 1 0 16 689 450 691 ?692 693 644 687 0 0 1 30
 690 249 0 693 687 694 0 +.064 -.05 0 0 1 0 16 693 458 695 ?696 697 689 690 0 0
 1 30 694 252 0 697 690 698 0 +1084202172485504e-33 -.05 0 0 1 0 16 697 370 699
 ?700 701 693 694 0 0 1 30 698 387 0 701 694 702 0 -.005 -.04 0 -1 0 0 16 701 38
5 703 ?181 704 697 698 0 0 1 30 702 392 0 704 698 705 0 +.0025 -.01 0 -1 0 0 16
 704 390 706 ?707 708 701 702 0 0 1 31 705 405 0 708 702 709 0 -0 -.04 -.01 1 0
 0 0 0 -1 .01 16 708 403 710 ?189 711 704 705 0 0 1 31 709 410 0 711 705 712 0 -
0 -.01 -.01 1 0 0 0 0 -1 .01 16 711 408 713 ?173 714 708 709 0 0 1 30 712 427 0
 714 709 715 0 -.032 0 -.01 -1 0 0 16 714 425 716 ?590 717 711 712 0 0 1 30 715
 432 0 717 712 718 0 -.032 0 -.01 -1 0 0 16 717 430 719 ?720 721 714 715 0 0 1 3
1 718 441 0 721 715 722 0 -.005 -.04 -.01 -1 0 0 0 0 1 .01 16 721 439 723 ?724 7
25 717 718 0 0 1 31 722 446 0 725 718 726 0 -.005 -.01 -.01 -1 0 0 0 0 1 .01 16
 725 444 727 ?177 728 721 722 0 0 1 30 726 467 0 728 722 729 0 -.064 -.04 0 -1 0
 0 16 728 465 730 ?141 731 725 726 0 0 1 30 729 472 0 731 726 732 0 +.0615 -.01
 0 -1 0 0 16 731 470 733 ?734 735 728 729 0 0 1 31 732 481 0 735 729 736 0 -.059
 -.04 -.01 1 0 1387778780781446e-31 1387778780781446e-31 0 -1 .01 16 735 479 737
 ?149 738 731 732 0 0 1 31 736 486 0 738 732 739 0 -.059 -.01 -.01 1 0 138777878
0781446e-31 1387778780781446e-31 0 -1 .01 16 738 484 740 ?161 741 735 736 0 0 1
 31 739 495 0 741 736 742 0 -.064 -.04 -.01 -1 0 0 0 0 1 .01 16 741 493 743 ?744
 745 738 739 0 0 1 31 742 500 0 745 739 606 0 -.064 -.01 -.01 -1 0 0 0 0 1 .01 1
6 745 498 746 ?137 747 741 742 0 0 1 30 606 505 0 747 742 605 0 +0 -.05 -.01 -1
 0 0 16 747 503 748 ?622 604 745 606 0 0 1 81 1 748 658 33 747 0 0 710 723 749 1
7 622 0 37 618 153 166 750 747 0 623 +16 604 508 751 ?752 597 747 605 0 0 1 81 1
 751 649 33 604 0 0 740 743 753 17 752 0 48 203 129 130 754 604 0 755 +17 203 0
 48 27 752 75 755 651 0 204 +17 129 0 48 752 82 126 756 629 0 744 +17 754 0 314
 757 133 126 752 604 0 0 -17 755 0 758 149 78 130 203 651 0 0 -15 758 225 0 658
 278 0 17 149 0 758 692 755 146 133 735 0 759 +17 78 0 758 755 658 75 496 498 0
 203 +17 658 0 758 78 161 91 760 655 0 496 +17 161 0 758 658 692 158 145 738 0 7
60 +17 760 0 272 590 94 158 658 655 0 761 -17 590 0 272 588 760 154 761 714 0 76
2 +17 94 0 272 760 500 91 497 28 0 658 +17 761 0 310 145 762 158 590 714 0 0 -15
 310 550 0 762 305 0 17 145 0 310 763 761 142 161 738 0 734 -17 762 0 310 761 76
3 154 137 745 0 0 -17 763 0 310 762 145 134 734 731 0 0 -17 137 0 764 765 157 13
4 762 745 0 696 +15 764 229 0 756 286 0 17 765 0 764 744 137 138 696 693 0 757 -
17 157 0 764 137 517 154 588 585 0 590 +17 696 0 287 734 141 134 765 693 0 763 +
15 287 227 0 696 282 0 17 734 0 287 759 696 142 763 731 0 692 +17 141 0 287 696
 759 138 766 728 0 765 +17 759 0 287 141 734 146 692 689 0 766 -17 766 0 314 133
 757 146 141 728 0 0 -15 314 571 0 757 309 0 17 133 0 314 754 766 130 149 735 0
 752 -17 757 0 314 766 754 138 744 741 0 0 -17 744 0 764 756 765 126 757 741 0 7
54 +17 756 0 764 517 744 79 129 629 0 591 -17 517 0 764 157 756 87 591 507 0 588
 +17 591 0 425 767 90 79 517 507 0 0 -17 767 0 425 197 591 111 82 614 0 0 -17 19
7 0 425 63 767 194 603 597 0 230 -17 82 0 48 129 49 79 767 614 0 756 +17 49 0 48
 82 44 111 53 630 0 603 +17 53 0 574 217 603 32 49 630 0 214 -16 630 1115 768 ?4
9 621 624 631 621 621 1 17 603 0 574 53 233 111 197 597 0 767 +17 233 0 574 603
 575 194 581 224 0 0 +17 581 0 261 230 230 60 233 224 0 0 -15 261 1398 0 581 255
 0 17 230 0 261 581 581 194 63 223 0 233 +81 1 768 1541 33 630 0 0 628 208 769 3
0 631 19 0 621 668 662 0 +.032 -.05 -.06 1 0 0 30 668 14 0 624 684 631 0 +0 -.05
 -.03 0 0 -1 30 662 24 0 629 631 654 0 +.064 -.05 -.03 0 0 1 30 654 34 0 651 662
 211 0 +.059 -.05 -.025 1387778780781446e-31 0 -1 30 211 39 0 201 654 645 0 +.03
2 -.05 -.05 -1 0 -1284980352575412e-31 30 684 1417 0 41 220 668 0 +.026975062189
43955 -.05 -.05 0 0 -1 30 220 1418 0 52 241 684 0 -.03702493781056045 -.05 -.05
 0 0 -1 81 1 628 1540 33 621 0 0 600 768 770 81 1 208 1542 33 201 0 0 768 396 77
1 82 3 769 12 12 1 81 1 396 1543 33 210 0 0 208 364 772 82 3 771 12 13 1 16 210
 1125 396 ?38 201 651 211 201 201 1 82 3 772 12 14 1 17 38 0 37 67 31 68 42 210
 0 773 +17 67 0 37 153 38 64 773 524 0 774 +17 773 0 775 776 777 68 67 524 0 0 -
15 775 870 0 773 320 0 17 776 0 775 106 773 95 71 502 0 0 -17 777 0 775 773 106
 64 510 503 0 0 -17 106 0 775 777 776 103 523 520 0 510 -17 510 0 778 165 774 10
3 777 503 0 779 +15 778 221 0 774 268 0 17 165 0 778 177 510 162 779 646 0 720 +
17 774 0 778 510 724 64 153 209 0 777 -17 779 0 272 523 720 103 165 646 0 0 -17
 523 0 272 500 779 95 106 520 0 776 +17 720 0 272 779 682 162 780 717 0 781 +17
 682 0 272 720 110 170 670 586 0 780 -17 780 0 306 185 781 170 720 717 0 0 -17 7
81 0 306 780 782 162 177 725 0 0 -15 306 529 0 781 271 0 17 782 0 306 781 185 17
4 707 704 0 0 -17 177 0 778 783 165 174 781 725 0 688 +17 783 0 778 724 177 178
 688 644 0 784 -17 688 0 302 707 181 174 783 644 0 782 +15 302 235 0 688 298 0 1
7 707 0 302 785 688 182 782 704 0 700 +17 181 0 302 688 785 178 786 701 0 783 +1
7 785 0 302 181 707 186 700 697 0 786 -17 786 0 317 169 784 186 181 701 0 0 -15
 317 592 0 784 313 0 17 169 0 317 750 786 166 189 708 0 622 -17 784 0 317 786 75
0 178 724 721 0 0 -17 750 0 317 784 169 150 622 747 0 0 -17 724 0 778 774 783 15
0 784 721 0 750 +17 189 0 681 700 623 186 169 708 0 785 +15 681 233 0 670 294 0
 17 700 0 681 173 189 182 785 697 0 0 +17 623 0 681 189 86 166 618 624 0 0 -17 8
6 0 681 623 670 83 625 611 0 618 +17 625 0 321 583 619 107 86 611 0 0 -17 583 0
 321 193 625 122 110 593 0 576 -17 110 0 272 682 576 107 583 593 0 670 +17 173 0
 681 670 700 170 185 711 0 682 +17 185 0 306 782 780 182 173 711 0 707 -17 500 0
 272 94 523 99 98 649 0 0 -17 98 0 205 71 102 95 500 649 0 523 +17 71 0 205 42 9
8 68 776 502 0 38 +17 153 0 37 622 67 150 774 209 0 724 +81 1 600 1539 33 597 0
 0 596 628 787 82 3 770 12 11 1 82 3 787 12 10 1 17 692 0 758 161 149 142 759 68
9 0 0 +81 1 740 648 33 738 0 0 733 751 788 81 1 743 650 33 741 0 0 751 730 789 8
2 3 753 9 4 1 81 1 730 651 33 728 0 0 743 737 790 82 3 789 9 5 1 81 1 737 652 33
 735 0 0 730 713 791 82 3 790 9 6 1 81 1 713 653 33 711 0 0 737 719 792 82 3 791
 9 7 1 81 1 719 654 33 717 0 0 713 727 793 82 3 792 9 8 1 81 1 727 655 33 725 0
 0 719 706 794 82 3 793 9 9 1 81 1 706 656 33 704 0 0 727 710 795 82 3 794 9 10
 1 81 1 710 657 33 708 0 0 706 748 796 82 3 795 9 11 1 82 3 796 9 12 1 81 1 733
 647 33 731 0 0 746 740 797 82 3 788 9 3 1 81 1 746 646 33 745 0 0 716 733 798 8
2 3 797 9 2 1 81 1 716 645 33 714 0 0 180 746 799 82 3 798 9 1 1 81 1 180 644 33
 178 0 0 152 716 800 82 3 799 9 0 1 81 1 152 643 33 150 0 0 188 180 801 82 3 800
 9 15 0 81 1 188 642 33 186 0 0 168 152 802 82 3 801 9 14 0 81 1 168 641 33 166
 0 0 176 188 803 82 3 802 9 13 0 81 1 176 640 33 174 0 0 164 168 804 82 3 803 9
 12 0 81 1 164 639 33 162 0 0 184 176 805 82 3 804 9 11 0 81 1 184 638 33 182 0
 0 172 164 806 82 3 805 9 10 0 81 1 172 637 33 170 0 0 148 184 807 82 3 806 9 9
 0 81 1 148 636 33 146 0 0 140 172 808 82 3 807 9 8 0 81 1 140 635 33 138 0 0 13
2 148 809 82 3 808 9 7 0 81 1 132 634 33 130 0 0 128 140 810 82 3 809 9 6 0 81 1
 128 633 33 126 0 0 144 132 811 82 3 810 9 5 0 81 1 144 632 33 142 0 0 136 128 8
12 82 3 811 9 4 0 81 1 136 631 33 134 0 0 160 144 813 82 3 812 9 3 0 81 1 160 63
0 33 158 0 0 156 136 814 82 3 813 9 2 0 81 1 156 629 33 154 0 0 0 160 815 82 3 8
14 9 1 0 82 3 815 9 0 0 81 1 723 659 33 721 0 0 748 703 816 82 3 749 9 13 1 81 1
 703 660 33 701 0 0 723 699 817 82 3 816 9 14 1 81 1 699 661 33 697 0 0 703 695
 818 82 3 817 9 15 1 81 1 695 662 33 693 0 0 699 691 819 82 3 818 9 16 1 81 1 69
1 663 33 689 0 0 695 409 820 82 3 819 9 17 1 81 1 409 664 33 644 0 0 691 407 821
 82 3 820 9 18 1 82 3 821 9 19 1 81 1 226 1529 33 649 0 0 584 222 822 81 1 584 1
528 33 577 0 0 505 226 823 82 3 822 12 5 1 81 1 505 1527 33 502 0 0 501 584 824
 82 3 823 12 4 1 82 3 824 12 3 1 81 1 683 1558 33 41 0 0 46 239 825 17 40 0 212
 214 213 45 31 41 0 217 +81 1 46 1557 33 52 0 0 43 683 826 81 1 239 1559 33 235
 0 0 683 232 827 82 3 825 12 16 1 81 1 232 1560 33 224 0 0 239 538 828 82 3 827
 12 17 1 81 1 538 1561 33 218 0 0 232 535 829 82 3 828 12 18 1 16 218 1329 538 ?
217 224 235 234 224 235 1 82 3 829 12 19 1 82 3 826 12 15 1 80 1 640 830 831 803
8 0 0 0 0 0 0 0 0 0 TTTTTTTTTTTTTFTFT10 81 1 14 2267 830 1 636 2 0 0 832 98 255
 6 641 80 97 114 116 32 49 80 1 830 833 834 8017 0 0 0 0 0 0 0 0 0 TTTTTTTTTTTTT
FTFT3 84 255 6 832 Part 179 255 13 834 SDL/TYSA_NAME79 14 831 SDL/TYSA_UNAME15 4
38 1382 0 627 260 0 17 627 0 438 632 632 54 240 235 0 0 -17 240 0 574 125 607 19
0 627 235 0 0 +81 1 610 967 33 593 0 0 613 616 835 82 3 617 10 3 1 81 1 613 966
 33 611 0 0 66 610 836 82 3 835 10 2 1 81 1 66 964 33 64 0 0 105 613 837 82 3 83
6 10 1 1 81 1 105 963 33 103 0 0 70 66 838 82 3 837 10 15 0 81 1 70 962 33 68 0
 0 97 105 839 82 3 838 10 14 0 81 1 97 961 33 95 0 0 77 70 840 82 3 839 10 13 0
 81 1 77 960 33 75 0 0 93 97 841 82 3 840 10 12 0 81 1 93 959 33 91 0 0 74 77 84
2 82 3 841 10 11 0 81 1 74 958 33 72 0 0 101 93 843 82 3 842 10 10 0 81 1 101 95
7 33 99 0 0 81 74 844 82 3 843 10 9 0 81 1 81 956 33 79 0 0 89 101 845 82 3 844
 10 8 0 81 1 89 955 33 87 0 0 113 81 846 82 3 845 10 7 0 81 1 113 954 33 111 0 0
 120 89 847 82 3 846 10 6 0 81 1 120 953 33 118 0 0 85 113 848 82 3 847 10 5 0 8
1 1 85 952 33 83 0 0 109 120 849 82 3 848 10 4 0 81 1 109 951 33 107 0 0 116 85
 850 82 3 849 10 3 0 81 1 116 950 33 114 0 0 124 109 851 82 3 850 10 2 0 81 1 12
4 949 33 122 0 0 367 116 852 82 3 851 10 1 0 82 3 852 10 0 0 81 1 599 1537 33 59
4 0 0 401 596 853 81 1 401 1536 33 582 0 0 398 599 854 82 3 853 12 8 1 82 3 854
 12 7 1 82 3 601 12 9 1 17 358 0 351 358 358 0 573 479 0 0 +17 488 0 348 488 488
 0 571 477 0 0 +15 348 2007 0 488 342 855 15 855 2008 0 856 342 0 17 856 0 855 8
56 856 0 334 326 0 0 -17 334 0 324 334 334 0 856 326 0 0 +15 324 1868 0 334 320
 775 17 475 0 357 475 475 0 569 472 0 0 +15 357 1977 0 475 349 565 17 485 0 456
 485 485 0 567 476 0 0 +15 456 1947 0 485 347 495 82 3 546 30 0 1 15 446 1713 0
 536 442 857 17 541 0 299 541 541 0 536 468 0 0 -15 299 1668 0 541 294 681 15 85
7 1714 0 533 442 0 17 533 0 857 533 533 0 529 528 0 0 -81 1 539 1745 33 237 0 0
 535 531 858 82 3 540 16 0 1 16 237 1686 539 ?859 235 530 236 0 0 1 81 1 531 174
6 33 530 0 0 539 373 860 82 3 858 16 1 1 82 3 860 16 2 1 17 859 0 291 859 859 0
 861 237 0 0 +15 291 1662 0 859 286 764 17 861 0 862 861 861 0 859 237 0 0 -15 8
62 1704 0 861 262 0 17 534 0 283 534 534 0 863 530 0 0 +15 283 1656 0 534 278 75
8 17 863 0 451 863 863 0 534 530 0 0 -15 451 1703 0 863 262 862 15 275 1649 0 52
9 268 778 82 3 532 16 3 1 82 3 506 12 2 1 31 23 1884 0 464 328 8 0 +.032 -.00727
203767746687 -.05 1284980352575412e-31 0 -1 -1 0 -1284980352575412e-31 .0025 79
 9 463 BTI/DetId82 3 458 20 1 2 82 3 453 16 5 2 82 3 448 16 4 2 81 1 192 1549 33
 190 0 0 434 58 864 82 3 443 12 9 2 81 1 58 1550 33 54 0 0 192 62 865 82 3 864 1
2 0 0 81 1 62 1551 33 60 0 0 58 196 866 82 3 865 12 1 0 81 1 196 1552 33 194 0 0
 62 34 867 82 3 866 12 2 0 82 3 867 12 3 0 82 3 439 12 7 2 82 3 435 12 8 2 82 3
 430 20 4 2 82 3 426 12 3 2 82 3 422 20 5 2 82 3 416 12 2 2 82 3 414 9 3 2 82 3
 412 9 1 2 82 3 410 9 0 2 82 3 406 9 2 2 82 3 402 12 4 2 82 3 397 12 5 2 82 3 39
4 16 3 2 82 3 391 30 2 2 82 3 389 16 2 2 82 3 386 9 8 2 82 3 383 16 1 2 82 3 380
 30 1 2 82 3 375 16 0 2 82 3 370 9 11 2 82 3 366 12 6 2 79 15 363 SDL/TYSA_COLOU
R83 3 355 .615686274509804 .811764705882353 .929411764705882 40 21 339 0 1 21 .0
00304954549137314 .3981563700996545 ??.0509254478290677 -.0256290975958109 -.048
3055692237071 .051040993785896 -.02487784602942175 -.0482447878996598 .051365685
3676548 -.02421227770515645 -.048067007272697 .0518625676450217 -.02367784017293
805 -.0477741939091067 .052515246159898 -.02330067905065185 -.0473487077395306 .
0533061903023304 -.02313194368739505 -.0467641328646361 .0542045336018689 -.0232
5359231090435 -.045993975348723 .0551186379439685 -.02378977510239045 -.04506855
94933409 .0556063980261107 -.024407027124022 -.0445021852675842 .055838877881307
4 -.02497690484596895 -.04421091583456775 .0559222569327285 -.0255028268554296 -
.04410273528287 .0558905396476019 -.0260454175763496 -.04414412745366155 .055761
4677165598 -.02651960929435375 -.04430955837579435 .0554076037473342 -.027152599
4552391 -.04473994747130635 .0546700045471878 -.02779729467527165 -.045542817600
7646 .0537365740547374 -.02810966214278415 -.0464104831482551 .052568695159363 -
.0279777088584412 -.0473116799530328 .0518310352729535 -.027554675067871 -.04779
35486302182 .0512418702412044 -.02684646726759555 -.0481360311894254 .0509617378
780833 -.02605351870440485 -.0482866175423567 .0509254478290677 -.02562909759581
09 -.0483055692237071 41 1 340 H?.0509254478290677 -.0256290975958109 -.04830556
92237071 204 84 341 4 .479906818408018 -.0243709024041891 0 .0133055692237071 .4
88610673263031 -.0251221539705783 .305217496580697 .01324478789965976 .513289726
885948 -.02578772229484355 .602529020636352 .01306700727269702 .551741581384322
 -.02632215982706195 .895469968519662 .01277419390910666 .603688744645731 -.0266
9932094934815 1.198150792436824 .0123487077395306 .669268795081615 -.02686805631
260495 1.523075205567675 .0117641328646361 .748174927260524 -.02674640768909565
 1.887708834716995 .01099397534872302 .834919574602056 -.02621022489760955 2.314
850234261375 .01006855949334086 .884755095394996 -.025592972875978 2.63084664174
914 .00950218526758422 .909600565389972 -.0250230951540311 2.877662000477795 .00
921091583456775 .91870617462007 -.0244971731445704 3.09106285756195 .00910273528
287001 .915229713637098 -.0239545824236504 3.30890009291777 .00914412745366155 .
901241199091995 -.0234803907056463 3.505795648097275 .00930955837579434 .8640934
34939018 -.0228474005447609 3.79689721109308 .00973994747130636 .791393849472743
 -.02220270532472835 4.191302529584365 .01054281760076456 .706407212681739 -.021
89033785721585 4.58761498367277 .01141048314825514 .608023543955215 -.0220222911
415588 5.0621795512066 .01231167995303276 .549275008042317 -.022445324932129 5.4
0398204983821 .01279354863021822 .50383935683523 -.02315353273240445 5.774593387
79438 .01313603118942544 .482636193529083 -.02394648129559515 6.11259061016141 .
0132866175423567 .479906818408018 -.0243709024041891 1387778780781444e-30 .01330
55692237071 141 254 231 254 254 20 40 7 248 0 1 7 .001383787194405426 .345478704
463066 ??.015 -.0440065778087482 -.06 .0101617532469786 -.03816590212458495 -.05
91982875149392 .0073294100263118 -.03145073564410725 -.0578903859312107 .0065137
982634075 -.02416123838803315 -.0573686854631304 .00780060265028628 -.0169601512
507592 -.0581593570435996 .01120510457409054 -.01024119502718834 -.0595120215237
717 .015 -.00599342219125179 -.06 41 1 249 L?.015 -.0440065778087482 -.06 41 1 2
50 L?.015 -.00599342219125179 -.06 204 28 251 4 3.141592653589795 .0059934221912
5179 5.44211663661166 .01 3.470014667097255 .01183409787541504 5.74064883779653
 .00919828751493919 3.67837399857108 .0185492643558928 6.02743640264572 .0078903
8593121071 3.74293127905431 .02583876161196685 .0328985463409967 .00736868546313
044 3.642201569088475 .0330398487492408 .320760313623172 .00815935704359963 3.39
736533468364 .03975880497281165 .61722776159832 .00951202152377167 3.14159265358
9795 .0440065778087482 .84106867056793 .01 82 3 228 12 6 1 82 3 199 12 4 0 81 1
 35 1555 33 45 0 0 30 43 868 82 3 868 12 6 0 82 3 47 12 7 0 82 3 36 12 5 0 19 18
 254 0 1 0 10 6 0 S0 141 21 327 21 21 7 74 4 CI16 index_map_offset0 0 1 dCCZ20 1
6 5 0 0 379 636 14 2 554 0 0 0 0 0 0 0 0 0 0 0 0 0 0 0 80 1 13 352 869 8040 0 0
 0 0 3 5 0 0 0 TTTFFFFFFFFFFFFFF2 83 3 15 .615686274509804 .811764705882353 .929
411764705882 79 17 869 SDL/TYSA_COLOUR_21 0 
